{"title":"Melodrama? (1980)","uid":11331362,"size":1361766481,"categoryP":"video","categoryS":"movies","magnet":"?xt=urn:btih:8c3ddef61d66054f1a114c9f4aa856f01ed26f09&amp;dn=Melodrama%3F+%281980%29&amp;tr=udp%3A%2F%2Ftracker.openbittorrent.com%3A80&amp;tr=udp%3A%2F%2Fopen.demonii.com%3A1337&amp;tr=udp%3A%2F%2Ftracker.coppersurfer.tk%3A6969&amp;tr=udp%3A%2F%2Fexodus.desync.com%3A6969","seeders":1,"leechers":0,"uploader":"cavallone","files":1,"time":1414684993,"description":"Plot: A 30-year-old man (Lefteris Vogiatzis) returns from America suffering an existential crisis. He goes to Corfu to see his sick mother and tries to find happiness through a desperate love affair with a young music teacher (Maria Xenoudaki). Along the way, he loses his love and ends his sick mother's suffering.\n\nRip specs:\n\nGeneral\nUnique ID : 202195753604987826478310664254611625268 (0x981D7C5387E2E250B3C1D88494819534)\nComplete name : Melodramat.AKA.Melodrama.1980.DVDRip.x264-HANDJOB.mkv\nFormat : Matroska\nFormat version : Version 4 / Version 2\nFile size : 1.27 GiB\nDuration : 1h 25mn\nOverall bit rate : 2 114 Kbps\nEncoded date : UTC 2014-07-25 11:21:45\nWriting application : mkvmerge v6.1.0 ('Old Devil') built on Mar 2 2013 14:32:37\nWriting library : libebml v1.3.0 + libmatroska v1.4.0\n\nVideo\nID : 1\nFormat : AVC\nFormat/Info : Advanced Video Codec\nFormat profile : &lt;a class=&quot;__cf_email__&quot; href=&quot;/cdn-cgi/l/email-protection&quot; data-cfemail=&quot;eca4858b84aca0dfc2dd&quot;&gt;[email&amp;#160;protected]&lt;/a&gt;&lt;script cf-hash='f9e31' type=&quot;text/javascript&quot;&gt;\n/* &lt;![CDATA[ */!function(){try{var t=&quot;currentScript&quot;in document?document.currentScript:function(){for(var t=document.getElementsByTagName(&quot;script&quot;),e=t.length;e--;)if(t[e].getAttribute(&quot;cf-hash&quot;))return t[e]}();if(t&amp;&amp;t.previousSibling){var e,r,n,i,c=t.previousSibling,a=c.getAttribute(&quot;data-cfemail&quot;);if(a){for(e=&quot;&quot;,r=parseInt(a.substr(0,2),16),n=2;a.length-n;n+=2)i=parseInt(a.substr(n,2),16)^r,e+=String.fromCharCode(i);e=document.createTextNode(e),c.parentNode.replaceChild(e,c)}}}catch(u){}}();/* ]]&gt; */&lt;/script&gt;\nFormat settings, CABAC : Yes\nFormat settings, ReFrames : 9 frames\nCodec ID : V_MPEG4/ISO/AVC\nDuration : 1h 25mn\nBit rate : 1 880 Kbps\nWidth : 700 pixels\nHeight : 572 pixels\nDisplay aspect ratio : 4:3\nOriginal display aspect ratio : 4:3\nFrame rate mode : Constant\nFrame rate : 25.000 fps\nColor space : YUV\nChroma subsampling : 4:2:0\nBit depth : 8 bits\nScan type : Progressive\nBits/(Pixel*Frame) : 0.188\nStream size : 1.13 GiB (89%)\nWriting library : x264 core 130 r2273 b3065e6\nEncoding settings : cabac=1 / ref=9 / deblock=1:-3:-3 / analyse=0x3:0x133 / me=umh / subme=11 / psy=1 / psy_rd=1.00:0.00 / mixed_ref=1 / me_range=32 / chroma_me=1 / trellis=2 / 8x8dct=1 / cqm=0 / deadzone=21,11 / fast_pskip=1 / chroma_qp_offset=-2 / threads=3 / lookahead_threads=1 / sliced_threads=0 / nr=0 / decimate=1 / interlaced=0 / bluray_compat=0 / constrained_intra=0 / bframes=6 / b_pyramid=2 / b_adapt=2 / b_bias=0 / direct=3 / weightb=1 / open_gop=0 / weightp=2 / keyint=250 / keyint_min=25 / scenecut=40 / intra_refresh=0 / rc_lookahead=60 / rc=crf / mbtree=1 / crf=16.3 / qcomp=0.70 / qpmin=0 / qpmax=69 / qpstep=4 / ip_ratio=1.40 / aq=1:1.00\nLanguage : Greek\nDefault : Yes\nForced : No\nColor primaries : BT.601 PAL\nTransfer characteristics : BT.709\nMatrix coefficients : BT.601\n\nAudio\nID : 2\nFormat : AC-3\nFormat/Info : Audio Coding 3\nMode extension : CM (complete main)\nFormat settings, Endianness : Big\nCodec ID : A_AC3\nDuration : 1h 25mn\nBit rate mode : Constant\nBit rate : 192 Kbps\nChannel(s) : 2 channels\nChannel positions : Front: L R\nSampling rate : 48.0 KHz\nBit depth : 16 bits\nCompression mode : Lossy\nStream size : 118 MiB (9%)\nLanguage : Greek\nDefault : Yes\nForced : No\n\nText\nID : 3\nFormat : UTF-8\nCodec ID : S_TEXT/UTF8\nCodec ID/Info : UTF-8 Plain Text\nLanguage : English\nDefault : Yes\nForced : No\n\nMenu\n00:00:00.000 : en:Chapter 1\n00:02:06.800 : en:Chapter 2\n00:07:46.640 : en:Chapter 3\n00:15:26.480 : en:Chapter 4\n00:26:08.240 : en:Chapter 5\n00:30:58.640 : en:Chapter 6\n00:39:10.640 : en:Chapter 7\n00:46:18.320 : en:Chapter 8\n00:51:35.120 : en:Chapter 9\n00:57:32.720 : en:Chapter 10\n01:03:34.160 : en:Chapter 11\n01:11:38.960 : en:Chapter 12\n01:17:01.040 : en:Chapter 13\n01:19:02.960 : en:Chapter 14\n01:24:05.840 : en:Chapter 15","torrent":{"xt":"urn:btih:8c3ddef61d66054f1a114c9f4aa856f01ed26f09","amp;dn":"Melodrama%3F+%281980%29","amp;tr":["udp%3A%2F%2Ftracker.openbittorrent.com%3A80","udp%3A%2F%2Fopen.demonii.com%3A1337","udp%3A%2F%2Ftracker.coppersurfer.tk%3A6969","udp%3A%2F%2Fexodus.desync.com%3A6969"],"infoHash":"8c3ddef61d66054f1a114c9f4aa856f01ed26f09","infoHashBuffer":{"type":"Buffer","data":[140,61,222,246,29,102,5,79,26,17,76,159,74,168,86,240,30,210,111,9]},"announce":[],"urlList":[]}}